<?xml version="1.0" encoding="utf-8"?>
<!-- Generator: Adobe Illustrator 21.1.0, SVG Export Plug-In . SVG Version: 6.00 Build 0)  -->
<svg version="1.1" id="레이어_1" xmlns="http://www.w3.org/2000/svg" xmlns:xlink="http://www.w3.org/1999/xlink" x="0px"
	 y="0px" viewBox="0 0 43.3 62.5" style="enable-background:new 0 0 43.3 62.5;" xml:space="preserve">
<style type="text/css">
	.st0{fill:#EB5E1A;}
	.st1{fill:#FFFFFF;}
</style>
<path class="st0" d="M8.9,20.4c-2.4,5.9-4.4,10.5-6.1,15.3c-3.3,9.5-0.2,18.5,7.7,23c8.7,5,20.9,3.1,26.8-4.3
	c6.1-7.6,5-19.6-2.3-25.3c-1.4,2.1-2.7,4.2-4.8,7.4c3.1-21.2-1.7-33-13.8-35c2.2,8.5,2.5,16.8-3.3,24.2C11.7,24,10.6,22.6,8.9,20.4z
	"/>
<path class="st1" d="M14.3,36.7c-1.3,3.4-2.5,6.1-3.5,8.8c-1.9,5.5-0.1,10.7,4.4,13.3c5,2.9,11.9,1.8,15.3-2.5
	c3.5-4.4,2.9-11.3-1.3-14.7c-0.8,1.2-1.6,2.4-2.8,4.3c1.8-12.3-1-19.1-7.9-20.3c1.2,4.9,1.4,9.7-1.9,14
	C15.9,38.8,15.2,37.9,14.3,36.7z"/>
</svg>
