<?xml version="1.0" encoding="utf-8"?>
<!-- Generator: Adobe Illustrator 21.1.0, SVG Export Plug-In . SVG Version: 6.00 Build 0)  -->
<svg version="1.1" id="레이어_1" xmlns="http://www.w3.org/2000/svg" xmlns:xlink="http://www.w3.org/1999/xlink" x="0px"
	 y="0px" viewBox="0 0 268 362" style="enable-background:new 0 0 268 362;" xml:space="preserve">
<style type="text/css">
	.st0{fill:#FFFFFF;stroke:#EA5D19;stroke-width:5;stroke-miterlimit:10;}
	.st1{fill:none;stroke:#EA5D19;stroke-width:5;stroke-miterlimit:10;}
	.st2{fill:none;stroke:#EA5D19;stroke-width:4;stroke-miterlimit:10;}
	.st3{fill:#FFFFFF;stroke:#EA5D19;stroke-width:4;stroke-linejoin:round;stroke-miterlimit:10;}
	.st4{fill:#FFFFFF;stroke:#EA5D19;stroke-width:5;stroke-linejoin:round;stroke-miterlimit:10;}
	.st5{fill:#EA5D19;}
	.st6{fill:none;stroke:#EA5D19;stroke-width:4;stroke-linecap:round;stroke-linejoin:round;stroke-miterlimit:10;}
	.st7{fill:none;stroke:#EA5D19;stroke-miterlimit:10;}
	.st8{fill:none;stroke:#EA5D19;stroke-width:3;stroke-linecap:round;stroke-linejoin:round;stroke-miterlimit:10;}
</style>
<path class="st0" d="M191.1,182.5H175H91.6c-3.3,4.2-5.2,9.5-5.2,15.2V271v7.7V343c0,5.8,4.7,10.5,10.5,10.5s10.5-4.7,10.5-10.5
	v-39.6c1.3,0.2,2.6,0.3,4,0.3h60c1.4,0,2.7-0.1,4-0.3V343c0,5.8,4.7,10.5,10.5,10.5s10.5-4.7,10.5-10.5v-64.3V271v-61.8v-11.5
	C196.3,192,194.4,186.7,191.1,182.5z"/>
<path class="st1" d="M206.3,182.5h-130c-13.8,0-25-11.3-25-25v-90c0-13.8,11.3-25,25-25h130c13.8,0,25,11.3,25,25v90
	C231.3,171.3,220.1,182.5,206.3,182.5z"/>
<path class="st0" d="M206.3,182.5h-130c-13.8,0-25-11.3-25-25v-90c0-13.8,11.3-25,25-25h130c13.8,0,25,11.3,25,25v90
	C231.3,171.3,220.1,182.5,206.3,182.5z"/>
<path class="st2" d="M187.5,164.5H95.2c-14.8,0-25-13.5-22.8-29.2l6.9-49.6C81,73.8,92.1,64.5,104,64.5h74.7
	c11.9,0,23,9.3,24.7,21.2l6.9,49.6C212.5,151,202.3,164.5,187.5,164.5z"/>
<path class="st0" d="M48.3,94.5h-14c-5.5,0-10,4.5-10,10v33c0,5.5,4.5,10,10,10h14c1,0,2.1-0.2,3-0.5V95
	C50.4,94.7,49.4,94.5,48.3,94.5z"/>
<path class="st0" d="M248.3,94.5h-14c-1,0-2.1,0.2-3,0.5v52c0.9,0.3,2,0.5,3,0.5h14c5.5,0,10-4.5,10-10v-33
	C258.3,99,253.8,94.5,248.3,94.5z"/>
<line class="st1" x1="51.3" y1="94.5" x2="51.3" y2="14.5"/>
<line class="st1" x1="232.3" y1="94.5" x2="232.3" y2="14.5"/>
<polygon class="st3" points="55.3,255.2 27.3,255.2 13.3,279.5 27.3,303.7 36,288.7 30.6,279.5 36,270.2 46.7,270.2 52,279.5 
	46.7,288.7 55.3,303.7 69.4,279.5 "/>
<path class="st4" d="M86.3,201.1v-3.8c0-5.6,1.8-10.7,4.9-14.9c-30.9,9.3-54.2,37.7-57.7,72.3h15.1
	C51.6,230.8,66.3,210.7,86.3,201.1z"/>
<g>
	<g>
		<path class="st5" d="M154.6,229.3v-10.6h2.6v10.6H154.6z"/>
		<path class="st5" d="M133.9,228c-1,1-2.3,1.5-3.8,1.5s-2.7-0.5-3.8-1.5c-1-1-1.5-2.3-1.5-3.8s0.5-2.7,1.5-3.8c1-1,2.3-1.5,3.8-1.5
			s2.7,0.5,3.8,1.5c1,1,1.5,2.3,1.5,3.8S134.9,227,133.9,228z M128.2,226.2c0.5,0.5,1.2,0.8,1.9,0.8c0.8,0,1.4-0.3,1.9-0.8
			s0.8-1.2,0.8-2s-0.3-1.5-0.8-2s-1.2-0.8-1.9-0.8c-0.8,0-1.4,0.3-1.9,0.8s-0.8,1.2-0.8,2C127.4,225.1,127.7,225.7,128.2,226.2z"/>
		<path class="st5" d="M145.9,228c-1,1-2.3,1.5-3.8,1.5s-2.7-0.5-3.8-1.5c-1-1-1.5-2.3-1.5-3.8s0.5-2.7,1.5-3.8c1-1,2.3-1.5,3.8-1.5
			s2.7,0.5,3.8,1.5c1,1,1.5,2.3,1.5,3.8S146.9,227,145.9,228z M140.2,226.2c0.5,0.5,1.2,0.8,1.9,0.8c0.8,0,1.4-0.3,1.9-0.8
			s0.8-1.2,0.8-2s-0.3-1.5-0.8-2s-1.2-0.8-1.9-0.8c-0.8,0-1.4,0.3-1.9,0.8s-0.8,1.2-0.8,2C139.4,225.1,139.7,225.7,140.2,226.2z"/>
		<path class="st5" d="M149.4,229.3v-15.2h2.6v15.2H149.4z"/>
		<path class="st5" d="M121.9,220.5c-1-1-2.3-1.5-3.8-1.5c-1,0-1.9,0.2-2.7,0.7v-5.6h-2.6v10.2l0,0l0,0c0,1.5,0.5,2.7,1.5,3.8
			c1,1,2.3,1.5,3.8,1.5s2.7-0.5,3.8-1.5c1-1,1.5-2.3,1.5-3.8C123.4,222.8,122.9,221.5,121.9,220.5z M120,226.2
			c-0.5,0.5-1.2,0.8-1.9,0.8c-0.8,0-1.4-0.3-1.9-0.8s-0.8-1.2-0.8-2s0.3-1.5,0.8-2s1.2-0.8,1.9-0.8c0.8,0,1.4,0.3,1.9,0.8
			s0.8,1.2,0.8,2C120.8,225.1,120.6,225.7,120,226.2z"/>
		<path class="st5" d="M155.9,217.3c-0.4,0-0.8-0.2-1.1-0.5s-0.5-0.7-0.5-1.1c0-0.4,0.2-0.8,0.5-1.1s0.7-0.5,1.1-0.5
			c0.4,0,0.8,0.2,1.1,0.5s0.5,0.7,0.5,1.1c0,0.4-0.2,0.8-0.5,1.1S156.3,217.3,155.9,217.3z"/>
		<path class="st5" d="M168.4,228c-1,1-2.3,1.5-3.8,1.5s-2.7-0.5-3.8-1.5c-1-1-1.5-2.3-1.5-3.8s0.5-2.7,1.5-3.8c1-1,2.3-1.5,3.8-1.5
			s2.7,0.5,3.8,1.5c1,1,1.5,2.3,1.5,3.8S169.4,227,168.4,228z M162.6,226.2c0.5,0.5,1.2,0.8,1.9,0.8c0.8,0,1.4-0.3,1.9-0.8
			s0.8-1.2,0.8-2s-0.3-1.5-0.8-2s-1.2-0.8-1.9-0.8c-0.8,0-1.4,0.3-1.9,0.8s-0.8,1.2-0.8,2S162.1,225.7,162.6,226.2z"/>
	</g>
	<g>
		<path class="st5" d="M132.1,238.1c-0.3,0.3-0.6,0.4-1,0.4s-0.7-0.1-1-0.4c-0.3-0.3-0.4-0.6-0.4-1s0.1-0.7,0.4-1
			c0.3-0.3,0.6-0.4,1-0.4s0.7,0.1,1,0.4c0.3,0.3,0.4,0.6,0.4,1S132.3,237.8,132.1,238.1z M130.6,237.6c0.1,0.1,0.3,0.2,0.5,0.2
			s0.4-0.1,0.5-0.2s0.2-0.3,0.2-0.5s-0.1-0.4-0.2-0.5s-0.3-0.2-0.5-0.2s-0.4,0.1-0.5,0.2c-0.1,0.1-0.2,0.3-0.2,0.5
			S130.4,237.5,130.6,237.6z"/>
		<path class="st5" d="M125.7,238.1c-0.3,0.3-0.6,0.4-1,0.4s-0.7-0.1-1-0.4c-0.3-0.3-0.4-0.6-0.4-1s0.1-0.7,0.4-1s0.6-0.4,1-0.4
			s0.7,0.1,1,0.4c0.3,0.3,0.4,0.6,0.4,1S125.9,237.8,125.7,238.1z M124.2,237.6c0.1,0.1,0.3,0.2,0.5,0.2s0.4-0.1,0.5-0.2
			s0.2-0.3,0.2-0.5s-0.1-0.4-0.2-0.5s-0.3-0.2-0.5-0.2s-0.4,0.1-0.5,0.2c-0.1,0.1-0.2,0.3-0.2,0.5S124.1,237.5,124.2,237.6z"/>
		<path class="st5" d="M128.9,236.1c-0.3-0.3-0.6-0.4-1-0.4c-0.3,0-0.5,0.1-0.7,0.2v-1.3h-0.7v2.5l0,0l0,0c0,0.4,0.1,0.7,0.4,1
			s0.6,0.4,1,0.4s0.7-0.1,1-0.4c0.3-0.3,0.4-0.6,0.4-1C129.3,236.7,129.2,236.4,128.9,236.1z M128.4,237.6c-0.1,0.1-0.3,0.2-0.5,0.2
			s-0.4-0.1-0.5-0.2c-0.1-0.1-0.2-0.3-0.2-0.5s0.1-0.4,0.2-0.5s0.3-0.2,0.5-0.2s0.4,0.1,0.5,0.2s0.2,0.3,0.2,0.5
			C128.6,237.3,128.6,237.5,128.4,237.6z"/>
		<path class="st5" d="M139.2,237.1c0,0.4,0.1,0.7,0.4,1c0.3,0.3,0.6,0.4,1,0.4s0.7-0.1,1-0.4c0.3-0.3,0.4-0.6,0.4-1l0,0l0,0v-2.5
			h-0.7v1.3c-0.2-0.1-0.4-0.2-0.7-0.2c-0.4,0-0.7,0.1-1,0.4C139.3,236.4,139.2,236.7,139.2,237.1z M139.9,237.1
			c0-0.2,0.1-0.4,0.2-0.5s0.3-0.2,0.5-0.2s0.4,0.1,0.5,0.2c0.1,0.1,0.2,0.3,0.2,0.5s-0.1,0.4-0.2,0.5c-0.1,0.1-0.3,0.2-0.5,0.2
			s-0.4-0.1-0.5-0.2C139.9,237.5,139.9,237.3,139.9,237.1z"/>
		<path class="st5" d="M122.4,238.5l-0.8-1.4h-0.7v1.4h-0.6v-3.8h1.5c0.3,0,0.6,0.1,0.9,0.4c0.2,0.2,0.4,0.5,0.4,0.9
			c0,0.2-0.1,0.5-0.2,0.7s-0.3,0.3-0.5,0.4l0.9,1.5L122.4,238.5L122.4,238.5z M120.9,235.2v1.3h0.9c0.2,0,0.3-0.1,0.4-0.2
			c0.1-0.1,0.2-0.3,0.2-0.5s-0.1-0.3-0.2-0.5c-0.1-0.1-0.3-0.2-0.4-0.2L120.9,235.2L120.9,235.2z"/>
		<path class="st5" d="M138.3,238.5l-0.3-0.8h-1.6l-0.3,0.8h-0.7l1.4-3.8h0.8l1.4,3.8H138.3z M136.6,237.1h1.2l-0.6-1.7L136.6,237.1
			z"/>
		<path class="st5" d="M144.5,235.7h0.7l-0.9,2.7h-0.9l-0.9-2.7h0.7l0.6,1.9L144.5,235.7z"/>
		<path class="st5" d="M146.3,235.2c-0.1,0.1-0.2,0.1-0.3,0.1s-0.2,0-0.3-0.1s-0.1-0.2-0.1-0.3s0-0.2,0.1-0.3s0.2-0.1,0.3-0.1
			s0.2,0,0.3,0.1s0.1,0.2,0.1,0.3C146.4,235,146.4,235.1,146.3,235.2z M145.8,238.4v-2.7h0.6v2.7H145.8z"/>
		<path class="st5" d="M147.6,236.5c0,0.1,0,0.2,0.1,0.2c0.1,0.1,0.2,0.1,0.4,0.1c0.1,0,0.3,0.1,0.4,0.1c0.1,0,0.3,0.1,0.4,0.3
			c0.1,0.1,0.1,0.3,0.1,0.5c0,0.3-0.1,0.5-0.3,0.6s-0.5,0.2-0.8,0.2s-0.5-0.1-0.7-0.2c-0.2-0.1-0.3-0.3-0.4-0.5l0.5-0.3
			c0.1,0.3,0.3,0.4,0.6,0.4s0.5-0.1,0.5-0.3c0-0.1,0-0.2-0.1-0.2c-0.1-0.1-0.2-0.1-0.4-0.1c-0.1,0-0.3-0.1-0.4-0.1
			c-0.1,0-0.3-0.1-0.4-0.2c-0.1-0.1-0.1-0.3-0.1-0.4c0-0.2,0.1-0.4,0.3-0.6c0.2-0.2,0.4-0.2,0.7-0.2c0.2,0,0.4,0,0.6,0.1
			c0.2,0.1,0.3,0.2,0.4,0.4l-0.5,0.3c-0.1-0.2-0.3-0.3-0.5-0.3c-0.1,0-0.2,0-0.3,0.1C147.7,236.3,147.6,236.4,147.6,236.5z"/>
		<path class="st5" d="M150.9,238.5c-0.4,0-0.7-0.1-1-0.4c-0.3-0.3-0.4-0.6-0.4-1s0.1-0.7,0.4-1c0.3-0.3,0.6-0.4,1-0.4
			s0.7,0.1,1,0.4c0.3,0.3,0.4,0.6,0.4,1s-0.1,0.7-0.4,1C151.6,238.3,151.3,238.5,150.9,238.5z M150.3,237.7c0.2,0.2,0.4,0.2,0.6,0.2
			c0.2,0,0.4-0.1,0.6-0.2c0.2-0.2,0.2-0.4,0.2-0.6c0-0.2-0.1-0.4-0.2-0.6c-0.2-0.2-0.4-0.2-0.6-0.2c-0.2,0-0.4,0.1-0.6,0.2
			c-0.2,0.2-0.2,0.4-0.2,0.6C150,237.3,150.1,237.5,150.3,237.7z"/>
		<path class="st5" d="M153.4,236.2c0.1-0.3,0.4-0.5,0.8-0.5v0.6c-0.2,0-0.4,0-0.6,0.2c-0.2,0.1-0.2,0.3-0.2,0.6v1.4h-0.6v-2.7h0.6
			V236.2z"/>
		<path class="st5" d="M156,235.8c0.1-0.7,0.5-1.2,1.3-1.2c1.4,0,1.8,1.6,0.8,2.3l-1.2,1h1.7v0.5H156V238l1.8-1.6l0,0
			c0.6-0.4,0.4-1.3-0.4-1.3c-0.5,0-0.7,0.3-0.8,0.7L156,235.8z"/>
		<path class="st5" d="M159.9,238.1c0,0.2-0.1,0.3-0.3,0.3s-0.3-0.2-0.3-0.3c0-0.2,0.1-0.3,0.3-0.3
			C159.8,237.8,159.9,237.9,159.9,238.1z"/>
		<path class="st5" d="M160.3,236.5c0-1,0.5-1.9,1.4-1.9c1,0,1.4,1,1.4,1.9c0,1-0.5,1.9-1.4,1.9
			C160.7,238.5,160.3,237.5,160.3,236.5z M160.8,236.5c0,0.7,0.3,1.4,0.9,1.4s0.9-0.7,0.9-1.4s-0.3-1.4-0.9-1.4
			S160.8,235.8,160.8,236.5z"/>
		<path class="st5" d="M133.3,237.3v-0.4h1.6v0.4H133.3z"/>
	</g>
</g>
<circle class="st5" cx="51.3" cy="14.5" r="5.2"/>
<circle class="st5" cx="232.3" cy="14.5" r="5.2"/>
<circle class="st5" cx="175.3" cy="110.3" r="4.2"/>
<path class="st6" d="M156.5,123c0,0-8,8-15.2-2c-7.2,10-15.2,2-15.2,2"/>
<line class="st7" x1="13.3" y1="279.5" x2="30.6" y2="279.5"/>
<line class="st7" x1="36" y1="270.2" x2="27.3" y2="255.2"/>
<line class="st7" x1="46.7" y1="270.2" x2="55.3" y2="255.2"/>
<line class="st7" x1="52" y1="279.5" x2="69.4" y2="279.5"/>
<polyline class="st8" points="99.4,106.2 108.2,111.5 99.4,116.5 "/>
<path class="st8" d="M134,126c0,0,6.9,18.5,15.4,0"/>
<path class="st0" d="M237.3,152.8l-6.3,6.3l-6.3,6.3c1.2,1.5,2.1,3.2,2.7,5.1c0.6,1.8,1,3.8,1,5.9c0,10-8.1,18.1-18.1,18.1
	c-7.8,0-14.5-5-17-11.9h-2.2c3.3,4.2,5.2,9.5,5.2,15.2v11.5c4.3,1.8,9,2.8,14,2.8c19.8,0,35.8-16,35.8-35.8
	C246.1,167.3,242.8,159.1,237.3,152.8z"/>
<circle class="st1" cx="175.3" cy="108.2" r="23.8"/>
<line class="st1" x1="193.6" y1="123.5" x2="225.2" y2="151"/>
<g>
	<polygon class="st3" points="239.8,148.6 220.7,168.4 194.6,161.2 187.6,134.1 203.8,138.6 206.4,148.9 216.4,151.7 223.7,144.1 
		221,133.8 211.1,131 206.7,114.3 232.8,121.5 	"/>
	<line class="st7" x1="194.6" y1="161.2" x2="206.4" y2="148.9"/>
	<line class="st7" x1="216.4" y1="151.7" x2="220.7" y2="168.4"/>
	<line class="st7" x1="223.7" y1="144.1" x2="239.8" y2="148.6"/>
	<line class="st7" x1="221" y1="133.8" x2="232.8" y2="121.5"/>
</g>
</svg>
