<?xml version="1.0" encoding="utf-8"?>
<!-- Generator: Adobe Illustrator 21.1.0, SVG Export Plug-In . SVG Version: 6.00 Build 0)  -->
<svg version="1.1" id="레이어_1" xmlns="http://www.w3.org/2000/svg" xmlns:xlink="http://www.w3.org/1999/xlink" x="0px"
	 y="0px" viewBox="0 0 319 144" style="enable-background:new 0 0 319 144;" xml:space="preserve">
<style type="text/css">
	.st0{fill:#FF5F00;}
</style>
<g>
	<g>
		<path class="st0" d="M229.8,87.7V32h13.6v55.6h-13.6V87.7z"/>
		<path class="st0" d="M120.9,81.1c-5.4,5.4-12,8.1-19.8,8.1s-14.4-2.7-19.8-8.1s-8.1-12-8.1-19.8s2.7-14.4,8.1-19.8
			s12-8.1,19.8-8.1s14.4,2.7,19.8,8.1s8.1,12,8.1,19.8S126.3,75.7,120.9,81.1z M90.9,71.8c2.7,2.7,6.1,4.1,10.2,4.1
			s7.5-1.4,10.2-4.1s4.1-6.2,4.1-10.4s-1.4-7.7-4.1-10.4c-2.7-2.7-6.2-4.1-10.2-4.1c-4.1,0-7.5,1.4-10.2,4.1s-4.1,6.2-4.1,10.4
			S88.2,69,90.9,71.8z"/>
		<path class="st0" d="M184.1,81.1c-5.4,5.4-12,8.1-19.8,8.1s-14.4-2.7-19.8-8.1s-8.1-12-8.1-19.8s2.7-14.4,8.1-19.8
			s12-8.1,19.8-8.1s14.4,2.7,19.8,8.1c5.4,5.4,8.1,12,8.1,19.8S189.5,75.7,184.1,81.1z M154.1,71.8c2.7,2.7,6.1,4.1,10.2,4.1
			s7.5-1.4,10.2-4.1s4.1-6.2,4.1-10.4s-1.4-7.7-4.1-10.4c-2.7-2.7-6.2-4.1-10.2-4.1c-4.1,0-7.5,1.4-10.2,4.1s-4.1,6.2-4.1,10.4
			S151.3,69,154.1,71.8z"/>
		<path class="st0" d="M202.5,87.7V7.8h13.6v79.9H202.5z"/>
		<path class="st0" d="M57.7,41.6c-5.4-5.4-12-8.1-19.8-8.1c-5.3,0-10,1.3-14.2,3.8V7.8H10.1v53.4l0,0v0.1c0,7.8,2.7,14.4,8.1,19.8
			s12,8.1,19.8,8.1s14.4-2.7,19.8-8.1s8.1-12,8.1-19.8C65.8,53.5,63.1,46.9,57.7,41.6z M48.1,71.8c-2.7,2.7-6.2,4.1-10.2,4.1
			c-4.1,0-7.5-1.4-10.2-4.1s-4.1-6.2-4.1-10.4S25,53.7,27.7,51c2.7-2.7,6.1-4.1,10.2-4.1s7.5,1.4,10.2,4.1s4.1,6.2,4.1,10.4
			S50.9,69,48.1,71.8z"/>
		<path class="st0" d="M236.5,24.6c-2.3,0-4.2-0.8-5.9-2.5s-2.5-3.6-2.5-5.9c0-2.2,0.8-4.2,2.5-5.9c1.7-1.7,3.6-2.5,5.9-2.5
			c2.3,0,4.3,0.8,6,2.5s2.5,3.7,2.5,5.9c0,2.3-0.8,4.2-2.5,5.9C240.8,23.7,238.9,24.6,236.5,24.6z"/>
		<path class="st0" d="M302,81.2c-5.4,5.4-12,8.1-19.8,8.1s-14.4-2.7-19.8-8.1c-5.4-5.4-8.1-12-8.1-19.8s2.7-14.4,8.1-19.8
			c5.4-5.4,12-8.1,19.8-8.1s14.4,2.7,19.8,8.1c5.4,5.4,8.1,12,8.1,19.8C310.2,69.2,307.5,75.8,302,81.2z M272,71.8
			c2.7,2.7,6.1,4.1,10.2,4.1c4.1,0,7.5-1.4,10.2-4.1s4.1-6.2,4.1-10.4c0-4.2-1.4-7.7-4.1-10.4c-2.7-2.7-6.2-4.1-10.2-4.1
			c-4.1,0-7.5,1.4-10.2,4.1s-4.1,6.2-4.1,10.4C268,65.6,269.3,69.1,272,71.8z"/>
	</g>
	<g>
		<path class="st0" d="M111.3,133.9c-1.4,1.4-3.1,2.1-5.1,2.1s-3.7-0.7-5.1-2.1s-2.1-3.1-2.1-5.1s0.7-3.7,2.1-5.1s3.1-2.1,5.1-2.1
			s3.7,0.7,5.1,2.1s2.1,3.1,2.1,5.1S112.7,132.5,111.3,133.9z M103.5,131.5c0.7,0.7,1.6,1.1,2.6,1.1c1.1,0,1.9-0.4,2.7-1.1
			c0.7-0.7,1.1-1.6,1.1-2.7s-0.4-2-1.1-2.7s-1.6-1.1-2.7-1.1s-1.9,0.4-2.6,1.1s-1.1,1.6-1.1,2.7S102.8,130.8,103.5,131.5z"/>
		<path class="st0" d="M77.8,133.9c-1.4,1.4-3.1,2.1-5.1,2.1s-3.7-0.7-5.1-2.1s-2.1-3.1-2.1-5.1s0.7-3.7,2.1-5.1s3.1-2.1,5.1-2.1
			s3.7,0.7,5.1,2.1s2.1,3.1,2.1,5.1S79.2,132.5,77.8,133.9z M70,131.5c0.7,0.7,1.6,1.1,2.6,1.1c1.1,0,1.9-0.4,2.7-1.1
			c0.7-0.7,1.1-1.6,1.1-2.7s-0.4-2-1.1-2.7s-1.6-1.1-2.7-1.1s-1.9,0.4-2.6,1.1s-1.1,1.6-1.1,2.7S69.3,130.8,70,131.5z"/>
		<path class="st0" d="M94.8,123.7c-1.4-1.4-3.1-2.1-5.1-2.1c-1.4,0-2.6,0.3-3.7,1v-6.9h-3.5v13.1l0,0l0,0c0,2,0.7,3.7,2.1,5.1
			s3.1,2.1,5.1,2.1s3.7-0.7,5.1-2.1s2.1-3.1,2.1-5.1C96.9,126.8,96.2,125.1,94.8,123.7z M92.3,131.5c-0.7,0.7-1.6,1.1-2.7,1.1
			s-1.9-0.4-2.6-1.1s-1.1-1.6-1.1-2.7s0.4-2,1.1-2.7s1.6-1.1,2.6-1.1c1.1,0,1.9,0.4,2.7,1.1c0.7,0.7,1.1,1.6,1.1,2.7
			C93.3,129.9,93,130.8,92.3,131.5z"/>
		<path class="st0" d="M148.8,129c0,2,0.7,3.7,2.1,5.1s3.1,2.1,5.1,2.1s3.7-0.7,5.1-2.1c1.4-1.4,2.1-3.1,2.1-5.1l0,0l0,0v-13.1h-3.5
			v6.9c-1.1-0.6-2.3-1-3.7-1c-2,0-3.7,0.7-5.1,2.1C149.6,125.3,148.8,127,148.8,129z M152.4,129c0-1.1,0.4-2,1.1-2.7
			s1.6-1.1,2.7-1.1s1.9,0.4,2.6,1.1s1.1,1.6,1.1,2.7s-0.4,2-1.1,2.7s-1.6,1.1-2.6,1.1c-1.1,0-1.9-0.4-2.7-1.1
			C152.7,131,152.4,130.1,152.4,129z"/>
		<path class="st0" d="M60.7,136l-4.2-7.3h-3.9v7.3h-3.3v-20h8c1.8,0,3.3,0.6,4.6,1.9c1.2,1.2,1.9,2.8,1.9,4.6
			c0,1.3-0.4,2.4-1.1,3.5s-1.7,1.8-2.9,2.3l4.5,7.8L60.7,136L60.7,136z M52.6,119v6.7h4.7c0.9,0,1.6-0.3,2.2-1
			c0.6-0.6,0.9-1.4,0.9-2.4c0-0.9-0.3-1.7-0.9-2.4c-0.6-0.6-1.4-1-2.2-1L52.6,119L52.6,119z"/>
		<path class="st0" d="M144,136l-1.4-4h-8.5l-1.4,4h-3.6l7.3-20h3.9l7.2,20H144z M135.2,128.9h6.3l-3.2-9L135.2,128.9z"/>
		<path class="st0" d="M176.6,121.5h3.9l-4.9,14.4H171l-4.9-14.4h3.9l3.3,10L176.6,121.5z"/>
		<path class="st0" d="M186.3,118.8c-0.4,0.4-0.8,0.6-1.4,0.6c-0.5,0-1-0.2-1.4-0.6s-0.6-0.8-0.6-1.4c0-0.5,0.2-1,0.6-1.4
			c0.4-0.4,0.8-0.6,1.4-0.6c0.5,0,1,0.2,1.4,0.6s0.6,0.8,0.6,1.4C186.9,118,186.7,118.4,186.3,118.8z M183.4,135.8v-14.2h3.1v14.2
			H183.4z"/>
		<path class="st0" d="M193.2,125.4c0,0.5,0.3,0.8,0.8,1.1c0.5,0.3,1.2,0.5,1.9,0.7s1.5,0.5,2.3,0.7s1.4,0.7,1.9,1.3
			c0.5,0.6,0.8,1.5,0.8,2.4c0,1.4-0.5,2.4-1.6,3.2c-1.1,0.8-2.4,1.2-4,1.2c-1.4,0-2.6-0.3-3.6-0.9s-1.7-1.4-2.2-2.4l2.6-1.5
			c0.5,1.4,1.5,2,3.2,2c1.6,0,2.4-0.5,2.4-1.6c0-0.5-0.3-0.8-0.8-1.1c-0.5-0.3-1.2-0.5-1.9-0.8c-0.7-0.2-1.5-0.5-2.3-0.7
			s-1.4-0.7-1.9-1.3c-0.5-0.6-0.8-1.4-0.8-2.3c0-1.3,0.5-2.4,1.5-3.2c1-0.8,2.2-1.2,3.7-1.2c1.2,0,2.2,0.3,3.1,0.8
			c0.9,0.5,1.6,1.2,2.1,2.2l-2.6,1.5c-0.5-1.1-1.4-1.6-2.7-1.6c-0.6,0-1.1,0.1-1.5,0.4C193.4,124.6,193.2,125,193.2,125.4z"/>
		<path class="st0" d="M210.3,136.1c-2.1,0-3.9-0.7-5.3-2.2c-1.5-1.4-2.2-3.2-2.2-5.3c0-2.1,0.7-3.9,2.2-5.3s3.2-2.2,5.3-2.2
			s3.9,0.7,5.3,2.2c1.5,1.4,2.2,3.2,2.2,5.3c0,2.1-0.7,3.9-2.2,5.3C214.2,135.4,212.4,136.1,210.3,136.1z M207.1,131.9
			c0.9,0.9,1.9,1.3,3.2,1.3s2.3-0.4,3.2-1.3s1.3-1.9,1.3-3.2c0-1.3-0.4-2.4-1.3-3.2c-0.9-0.9-1.9-1.3-3.2-1.3s-2.3,0.4-3.2,1.3
			s-1.3,1.9-1.3,3.2C205.8,129.9,206.3,131,207.1,131.9z"/>
		<path class="st0" d="M223.6,123.9c0.8-1.8,2.2-2.6,4.4-2.6v3.3c-1.2-0.1-2.2,0.2-3.1,0.8c-0.9,0.6-1.3,1.7-1.3,3.1v7.2h-3.1v-14.2
			h3.1L223.6,123.9L223.6,123.9z"/>
		<path class="st0" d="M237.2,122c0.5-3.5,2.8-6.4,6.9-6.4c7.5,0,9.5,8.2,4.2,12l-6.4,5.5h9.1v2.7h-13.9v-2.2l9.3-8.2l0,0
			c3.1-2.2,2.3-6.9-2.3-6.9c-2.4,0-3.7,1.6-4,3.8L237.2,122z"/>
		<path class="st0" d="M257.8,134.2c0,0.8-0.7,1.7-1.8,1.7c-0.9,0-1.7-0.9-1.7-1.7c0-1,0.8-1.8,1.7-1.8
			C257.1,132.4,257.8,133.1,257.8,134.2z"/>
		<path class="st0" d="M259.5,125.9c0-5.1,2.5-10.1,7.6-10.1c5,0,7.6,5.1,7.6,10.1s-2.5,10.1-7.6,10.1S259.5,131,259.5,125.9z
			 M262.4,125.9c0,3.7,1.4,7.3,4.6,7.3s4.6-3.5,4.6-7.3c0-3.9-1.4-7.3-4.6-7.3S262.4,122,262.4,125.9z"/>
		<path class="st0" d="M117.7,129.8v-2.3h8.2v2.3H117.7z"/>
	</g>
</g>
</svg>
