<?xml version="1.0" encoding="utf-8"?>
<!-- Generator: Adobe Illustrator 21.1.0, SVG Export Plug-In . SVG Version: 6.00 Build 0)  -->
<svg version="1.1" id="레이어_1" xmlns="http://www.w3.org/2000/svg" xmlns:xlink="http://www.w3.org/1999/xlink" x="0px"
	 y="0px" viewBox="0 0 344.5 363" style="enable-background:new 0 0 344.5 363;" xml:space="preserve">
<style type="text/css">
	.st0{fill:none;stroke:#231815;stroke-width:5;stroke-miterlimit:10;}
	.st1{fill:#FFFFFF;stroke:#EA5D19;stroke-width:5;stroke-miterlimit:10;}
	.st2{fill:none;stroke:#EA5D19;stroke-width:5;stroke-miterlimit:10;}
	.st3{fill:#EA5D19;}
	.st4{fill:none;stroke:#EA5D19;stroke-width:3;stroke-linecap:round;stroke-linejoin:round;stroke-miterlimit:10;}
	.st5{fill:none;stroke:#EA5D19;stroke-miterlimit:10;}
</style>
<path class="st0" d="M138.5,182.8h130c13.8,0,25-11.3,25-25v-90c0-13.8-11.3-25-25-25h-130c-13.8,0-25,11.3-25,25v90
	C113.5,171.6,124.8,182.8,138.5,182.8z"/>
<path class="st1" d="M138.5,182.8h130c13.8,0,25-11.3,25-25v-90c0-13.8-11.3-25-25-25h-130c-13.8,0-25,11.3-25,25v90
	C113.5,171.6,124.8,182.8,138.5,182.8z"/>
<path class="st2" d="M157.3,164.8h92.3c14.8,0,25-13.5,22.8-29.2l-6.9-49.6c-1.7-11.9-12.7-21.2-24.7-21.2h-74.7
	c-11.9,0-23,9.3-24.7,21.2l-6.9,49.6C132.4,151.3,142.6,164.8,157.3,164.8z"/>
<path class="st1" d="M296.5,94.8h14c5.5,0,10,4.5,10,10v33c0,5.5-4.5,10-10,10h-14c-1,0-2.1-0.2-3-0.5V95.3
	C294.5,95,295.5,94.8,296.5,94.8z"/>
<path class="st1" d="M96.5,94.8h14c1,0,2.1,0.2,3,0.5v52.1c-0.9,0.3-2,0.5-3,0.5h-14c-5.5,0-10-4.5-10-10v-33
	C86.5,99.3,91,94.8,96.5,94.8z"/>
<line class="st2" x1="293.5" y1="94.8" x2="293.5" y2="14.8"/>
<line class="st2" x1="112.5" y1="94.8" x2="112.5" y2="14.8"/>
<polygon class="st1" points="289.5,257.5 317.5,257.5 331.5,281.8 317.5,306.1 308.9,291.1 314.2,281.8 308.9,272.5 298.2,272.5 
	292.8,281.8 298.2,291.1 289.5,306.1 275.5,281.8 "/>
<path class="st1" d="M258.5,203.5v-3.8c0-5.6-1.8-10.7-4.9-14.9c30.9,9.3,54.2,37.7,57.7,72.3h-15.1
	C293.2,233.1,278.6,213.1,258.5,203.5z"/>
<circle class="st3" cx="237.5" cy="110.7" r="4.2"/>
<circle class="st3" cx="293.5" cy="14.8" r="5.2"/>
<circle class="st3" cx="112.5" cy="14.8" r="5.2"/>
<circle class="st3" cx="169.5" cy="110.7" r="4.2"/>
<path class="st4" d="M188.4,123.3c0,0,8,8,15.2-2c7.2,10,15.2,2,15.2,2"/>
<line class="st5" x1="331.5" y1="281.8" x2="314.2" y2="281.8"/>
<line class="st5" x1="308.9" y1="272.5" x2="317.5" y2="257.5"/>
<line class="st5" x1="298.2" y1="272.5" x2="289.5" y2="257.5"/>
<line class="st5" x1="292.8" y1="281.8" x2="275.5" y2="281.8"/>
<polygon class="st1" points="26.6,131.7 54.6,131.7 68.6,107.4 54.6,83.2 46,98.1 51.3,107.4 46,116.7 35.3,116.7 29.9,107.4 
	35.3,98.1 26.6,83.2 12.6,107.4 "/>
<line class="st5" x1="68.6" y1="107.4" x2="51.3" y2="107.4"/>
<line class="st5" x1="46" y1="116.7" x2="54.6" y2="131.7"/>
<line class="st5" x1="35.3" y1="116.7" x2="26.6" y2="131.7"/>
<line class="st5" x1="29.9" y1="107.4" x2="12.6" y2="107.4"/>
<path class="st1" d="M153.7,182.8c0,0-103.4,16.6-103.4-50.7H30.9c0,0-4.4,79.4,117.6,68.7"/>
<path class="st1" d="M258.5,198.1v73.3v7.7v64.3c0,5.8-4.7,10.5-10.5,10.5c-5.8,0-10.5-4.7-10.5-10.5v-39.6c-1.3,0.2-2.6,0.3-4,0.3
	h-60c-1.4,0-2.7-0.1-4-0.3v39.6c0,5.8-4.7,10.5-10.5,10.5s-10.5-4.7-10.5-10.5v-64.3v-7.7v-73.3c0-5.7,2-11,5.2-15.2h99.6
	C256.6,187.1,258.5,192.3,258.5,198.1z"/>
<g>
	<g>
		<path class="st3" d="M216.8,229.6V219h2.6v10.6H216.8z"/>
		<path class="st3" d="M196.1,228.3c-1,1-2.3,1.5-3.8,1.5c-1.5,0-2.7-0.5-3.8-1.5c-1-1-1.5-2.3-1.5-3.8c0-1.5,0.5-2.7,1.5-3.8
			c1-1,2.3-1.5,3.8-1.5c1.5,0,2.7,0.5,3.8,1.5c1,1,1.5,2.3,1.5,3.8C197.6,226.1,197.1,227.3,196.1,228.3z M190.4,226.6
			c0.5,0.5,1.2,0.8,1.9,0.8c0.8,0,1.4-0.3,1.9-0.8c0.5-0.5,0.8-1.2,0.8-2c0-0.8-0.3-1.5-0.8-2c-0.5-0.5-1.2-0.8-1.9-0.8
			c-0.8,0-1.4,0.3-1.9,0.8c-0.5,0.5-0.8,1.2-0.8,2C189.6,225.4,189.8,226,190.4,226.6z"/>
		<path class="st3" d="M208.1,228.3c-1,1-2.3,1.5-3.8,1.5c-1.5,0-2.7-0.5-3.8-1.5c-1-1-1.5-2.3-1.5-3.8c0-1.5,0.5-2.7,1.5-3.8
			c1-1,2.3-1.5,3.8-1.5c1.5,0,2.7,0.5,3.8,1.5c1,1,1.5,2.3,1.5,3.8C209.6,226.1,209.1,227.3,208.1,228.3z M202.4,226.6
			c0.5,0.5,1.2,0.8,1.9,0.8c0.8,0,1.4-0.3,1.9-0.8c0.5-0.5,0.8-1.2,0.8-2c0-0.8-0.3-1.5-0.8-2c-0.5-0.5-1.2-0.8-1.9-0.8
			c-0.8,0-1.4,0.3-1.9,0.8c-0.5,0.5-0.8,1.2-0.8,2C201.6,225.4,201.9,226,202.4,226.6z"/>
		<path class="st3" d="M211.6,229.6v-15.2h2.6v15.2H211.6z"/>
		<path class="st3" d="M184,220.8c-1-1-2.3-1.5-3.8-1.5c-1,0-1.9,0.2-2.7,0.7v-5.6H175v10.2l0,0c0,0,0,0,0,0c0,1.5,0.5,2.7,1.5,3.8
			c1,1,2.3,1.5,3.8,1.5c1.5,0,2.7-0.5,3.8-1.5c1-1,1.5-2.3,1.5-3.8C185.6,223.1,185.1,221.8,184,220.8z M182.2,226.6
			c-0.5,0.5-1.2,0.8-1.9,0.8c-0.8,0-1.4-0.3-1.9-0.8c-0.5-0.5-0.8-1.2-0.8-2c0-0.8,0.3-1.5,0.8-2c0.5-0.5,1.2-0.8,1.9-0.8
			c0.8,0,1.4,0.3,1.9,0.8c0.5,0.5,0.8,1.2,0.8,2C183,225.4,182.7,226,182.2,226.6z"/>
		<path class="st3" d="M218.1,217.6c-0.4,0-0.8-0.2-1.1-0.5c-0.3-0.3-0.5-0.7-0.5-1.1c0-0.4,0.2-0.8,0.5-1.1
			c0.3-0.3,0.7-0.5,1.1-0.5c0.4,0,0.8,0.2,1.1,0.5c0.3,0.3,0.5,0.7,0.5,1.1c0,0.4-0.2,0.8-0.5,1.1
			C218.9,217.4,218.5,217.6,218.1,217.6z"/>
		<path class="st3" d="M230.5,228.4c-1,1-2.3,1.5-3.8,1.5c-1.5,0-2.7-0.5-3.8-1.5c-1-1-1.5-2.3-1.5-3.8c0-1.5,0.5-2.7,1.5-3.8
			c1-1,2.3-1.5,3.8-1.5c1.5,0,2.7,0.5,3.8,1.5c1,1,1.5,2.3,1.5,3.8C232.1,226.1,231.6,227.3,230.5,228.4z M224.8,226.6
			c0.5,0.5,1.2,0.8,1.9,0.8c0.8,0,1.4-0.3,1.9-0.8c0.5-0.5,0.8-1.2,0.8-2c0-0.8-0.3-1.5-0.8-2c-0.5-0.5-1.2-0.8-1.9-0.8
			c-0.8,0-1.4,0.3-1.9,0.8c-0.5,0.5-0.8,1.2-0.8,2C224.1,225.4,224.3,226.1,224.8,226.6z"/>
	</g>
	<g>
		<path class="st3" d="M194.2,238.4c-0.3,0.3-0.6,0.4-1,0.4c-0.4,0-0.7-0.1-1-0.4c-0.3-0.3-0.4-0.6-0.4-1c0-0.4,0.1-0.7,0.4-1
			c0.3-0.3,0.6-0.4,1-0.4c0.4,0,0.7,0.1,1,0.4c0.3,0.3,0.4,0.6,0.4,1C194.6,237.8,194.5,238.1,194.2,238.4z M192.8,237.9
			c0.1,0.1,0.3,0.2,0.5,0.2c0.2,0,0.4-0.1,0.5-0.2s0.2-0.3,0.2-0.5s-0.1-0.4-0.2-0.5s-0.3-0.2-0.5-0.2c-0.2,0-0.4,0.1-0.5,0.2
			c-0.1,0.1-0.2,0.3-0.2,0.5S192.6,237.8,192.8,237.9z"/>
		<path class="st3" d="M187.9,238.4c-0.3,0.3-0.6,0.4-1,0.4c-0.4,0-0.7-0.1-1-0.4c-0.3-0.3-0.4-0.6-0.4-1c0-0.4,0.1-0.7,0.4-1
			c0.3-0.3,0.6-0.4,1-0.4c0.4,0,0.7,0.1,1,0.4c0.3,0.3,0.4,0.6,0.4,1C188.3,237.8,188.1,238.1,187.9,238.4z M186.4,237.9
			c0.1,0.1,0.3,0.2,0.5,0.2c0.2,0,0.4-0.1,0.5-0.2s0.2-0.3,0.2-0.5s-0.1-0.4-0.2-0.5s-0.3-0.2-0.5-0.2c-0.2,0-0.4,0.1-0.5,0.2
			c-0.1,0.1-0.2,0.3-0.2,0.5S186.2,237.8,186.4,237.9z"/>
		<path class="st3" d="M191.1,236.4c-0.3-0.3-0.6-0.4-1-0.4c-0.3,0-0.5,0.1-0.7,0.2v-1.3h-0.7v2.5l0,0c0,0,0,0,0,0
			c0,0.4,0.1,0.7,0.4,1c0.3,0.3,0.6,0.4,1,0.4c0.4,0,0.7-0.1,1-0.4c0.3-0.3,0.4-0.6,0.4-1S191.4,236.7,191.1,236.4z M190.6,237.9
			c-0.1,0.1-0.3,0.2-0.5,0.2c-0.2,0-0.4-0.1-0.5-0.2c-0.1-0.1-0.2-0.3-0.2-0.5s0.1-0.4,0.2-0.5c0.1-0.1,0.3-0.2,0.5-0.2
			c0.2,0,0.4,0.1,0.5,0.2s0.2,0.3,0.2,0.5S190.7,237.8,190.6,237.9z"/>
		<path class="st3" d="M201.4,237.5c0,0.4,0.1,0.7,0.4,1c0.3,0.3,0.6,0.4,1,0.4c0.4,0,0.7-0.1,1-0.4c0.3-0.3,0.4-0.6,0.4-1
			c0,0,0,0,0,0l0,0V235h-0.7v1.3c-0.2-0.1-0.4-0.2-0.7-0.2c-0.4,0-0.7,0.1-1,0.4C201.5,236.7,201.4,237.1,201.4,237.5z M202.1,237.5
			c0-0.2,0.1-0.4,0.2-0.5s0.3-0.2,0.5-0.2c0.2,0,0.4,0.1,0.5,0.2c0.1,0.1,0.2,0.3,0.2,0.5s-0.1,0.4-0.2,0.5
			c-0.1,0.1-0.3,0.2-0.5,0.2c-0.2,0-0.4-0.1-0.5-0.2S202.1,237.7,202.1,237.5z"/>
		<path class="st3" d="M184.6,238.8l-0.8-1.4h-0.7v1.4h-0.6V235h1.5c0.3,0,0.6,0.1,0.9,0.4c0.2,0.2,0.4,0.5,0.4,0.9
			c0,0.2-0.1,0.5-0.2,0.7c-0.1,0.2-0.3,0.3-0.5,0.4l0.9,1.5H184.6z M183.1,235.6v1.3h0.9c0.2,0,0.3-0.1,0.4-0.2
			c0.1-0.1,0.2-0.3,0.2-0.5c0-0.2-0.1-0.3-0.2-0.5c-0.1-0.1-0.3-0.2-0.4-0.2H183.1z"/>
		<path class="st3" d="M200.5,238.8l-0.3-0.8h-1.6l-0.3,0.8h-0.7l1.4-3.8h0.8l1.4,3.8H200.5z M198.8,237.4h1.2l-0.6-1.7L198.8,237.4
			z"/>
		<path class="st3" d="M206.7,236h0.7l-0.9,2.7h-0.9l-0.9-2.7h0.7l0.6,1.9L206.7,236z"/>
		<path class="st3" d="M208.5,235.5c-0.1,0.1-0.2,0.1-0.3,0.1c-0.1,0-0.2,0-0.3-0.1c-0.1-0.1-0.1-0.2-0.1-0.3c0-0.1,0-0.2,0.1-0.3
			c0.1-0.1,0.2-0.1,0.3-0.1c0.1,0,0.2,0,0.3,0.1c0.1,0.1,0.1,0.2,0.1,0.3C208.6,235.4,208.6,235.4,208.5,235.5z M207.9,238.7V236
			h0.6v2.7H207.9z"/>
		<path class="st3" d="M209.8,236.8c0,0.1,0,0.2,0.1,0.2c0.1,0.1,0.2,0.1,0.4,0.1c0.1,0,0.3,0.1,0.4,0.1c0.1,0,0.3,0.1,0.4,0.3
			c0.1,0.1,0.1,0.3,0.1,0.5c0,0.3-0.1,0.5-0.3,0.6c-0.2,0.1-0.5,0.2-0.8,0.2c-0.3,0-0.5-0.1-0.7-0.2c-0.2-0.1-0.3-0.3-0.4-0.5
			l0.5-0.3c0.1,0.3,0.3,0.4,0.6,0.4c0.3,0,0.5-0.1,0.5-0.3c0-0.1,0-0.2-0.1-0.2c-0.1-0.1-0.2-0.1-0.4-0.1c-0.1,0-0.3-0.1-0.4-0.1
			c-0.1,0-0.3-0.1-0.4-0.2c-0.1-0.1-0.1-0.3-0.1-0.4c0-0.2,0.1-0.4,0.3-0.6c0.2-0.2,0.4-0.2,0.7-0.2c0.2,0,0.4,0,0.6,0.1
			c0.2,0.1,0.3,0.2,0.4,0.4l-0.5,0.3c-0.1-0.2-0.3-0.3-0.5-0.3c-0.1,0-0.2,0-0.3,0.1C209.9,236.6,209.8,236.7,209.8,236.8z"/>
		<path class="st3" d="M213.1,238.8c-0.4,0-0.7-0.1-1-0.4c-0.3-0.3-0.4-0.6-0.4-1c0-0.4,0.1-0.7,0.4-1c0.3-0.3,0.6-0.4,1-0.4
			c0.4,0,0.7,0.1,1,0.4c0.3,0.3,0.4,0.6,0.4,1c0,0.4-0.1,0.7-0.4,1C213.8,238.7,213.5,238.8,213.1,238.8z M212.5,238
			c0.2,0.2,0.4,0.2,0.6,0.2c0.2,0,0.4-0.1,0.6-0.2c0.2-0.2,0.2-0.4,0.2-0.6c0-0.2-0.1-0.4-0.2-0.6c-0.2-0.2-0.4-0.2-0.6-0.2
			c-0.2,0-0.4,0.1-0.6,0.2c-0.2,0.2-0.2,0.4-0.2,0.6C212.2,237.6,212.3,237.8,212.5,238z"/>
		<path class="st3" d="M215.6,236.5c0.1-0.3,0.4-0.5,0.8-0.5v0.6c-0.2,0-0.4,0-0.6,0.2c-0.2,0.1-0.2,0.3-0.2,0.6v1.4H215V236h0.6
			V236.5z"/>
		<path class="st3" d="M218.2,236.1c0.1-0.7,0.5-1.2,1.3-1.2c1.4,0,1.8,1.6,0.8,2.3l-1.2,1h1.7v0.5h-2.6v-0.4l1.8-1.6h0
			c0.6-0.4,0.4-1.3-0.4-1.3c-0.5,0-0.7,0.3-0.8,0.7L218.2,236.1z"/>
		<path class="st3" d="M222.1,238.4c0,0.2-0.1,0.3-0.3,0.3c-0.2,0-0.3-0.2-0.3-0.3c0-0.2,0.1-0.3,0.3-0.3
			C222,238.1,222.1,238.2,222.1,238.4z"/>
		<path class="st3" d="M222.4,236.9c0-1,0.5-1.9,1.4-1.9c1,0,1.4,1,1.4,1.9c0,1-0.5,1.9-1.4,1.9
			C222.9,238.8,222.4,237.8,222.4,236.9z M223,236.9c0,0.7,0.3,1.4,0.9,1.4s0.9-0.7,0.9-1.4c0-0.7-0.3-1.4-0.9-1.4
			S223,236.1,223,236.9z"/>
		<path class="st3" d="M195.4,237.6v-0.4h1.6v0.4H195.4z"/>
	</g>
</g>
</svg>
